custom-analysis
version=1
nRows=4
nColumns=98
inDegrees=no

This file contains tibia displacement and acting force.

Units are S.I. units (seconds, meters, Newtons, ...)
Angles are in degrees.

endheader
time	APT	SIT	knee_angle	aACL_R_force	pACL_R_force	aPCL_R_force	pPCL_R_force	aMCL_R_force	mMCL_R_force	pMCL_R_force	aLCL_R_force	mLCL_R_force	pLCL_R_force	aPCL_L_force	pPCL_L_force	aMCL_L_force	aLCL_L_force	aACL_R_length	pACL_R_length	aPCL_R_length	pPCL_R_length	aMCL_R_length	mMCL_R_length	pMCL_R_length	aLCL_R_length	mLCL_R_length	pLCL_R_length	aPCL_L_length	pPCL_L_length	aMCL_L_length	aLCL_L_length	aACL_R_strain	pACL_R_strain	aPCL_R_strain	pPCL_R_strain	aMCL_R_strain	mMCL_R_strain	pMCL_R_strain	aLCL_R_strain	mLCL_R_strain	pLCL_R_strain	aPCL_L_strain	pPCL_L_strain	aMCL_L_strain	aLCL_L_strain	femur_lat_meniscii_r.femur_lat_r.force.X	femur_lat_meniscii_r.femur_lat_r.force.Y	femur_lat_meniscii_r.femur_lat_r.force.Z	femur_lat_meniscii_r.femur_lat_r.torque.X	femur_lat_meniscii_r.femur_lat_r.torque.Y	femur_lat_meniscii_r.femur_lat_r.torque.Z	femur_lat_meniscii_r.meniscus_lat_r.force.X	femur_lat_meniscii_r.meniscus_lat_r.force.Y	femur_lat_meniscii_r.meniscus_lat_r.force.Z	femur_lat_meniscii_r.meniscus_lat_r.torque.X	femur_lat_meniscii_r.meniscus_lat_r.torque.Y	femur_lat_meniscii_r.meniscus_lat_r.torque.Z	femur_med_meniscii_r.femur_med_r.force.X	femur_med_meniscii_r.femur_med_r.force.Y	femur_med_meniscii_r.femur_med_r.force.Z	femur_med_meniscii_r.femur_med_r.torque.X	femur_med_meniscii_r.femur_med_r.torque.Y	femur_med_meniscii_r.femur_med_r.torque.Z	femur_med_meniscii_r.meniscus_med_r.force.X	femur_med_meniscii_r.meniscus_med_r.force.Y	femur_med_meniscii_r.meniscus_med_r.force.Z	femur_med_meniscii_r.meniscus_med_r.torque.X	femur_med_meniscii_r.meniscus_med_r.torque.Y	femur_med_meniscii_r.meniscus_med_r.torque.Z	femur_med_tibia_r.tibia_upper_r.force.X	femur_med_tibia_r.tibia_upper_r.force.Y	femur_med_tibia_r.tibia_upper_r.force.Z	femur_med_tibia_r.tibia_upper_r.torque.X	femur_med_tibia_r.tibia_upper_r.torque.Y	femur_med_tibia_r.tibia_upper_r.torque.Z	femur_med_tibia_r.femur_med_r.force.X	femur_med_tibia_r.femur_med_r.force.Y	femur_med_tibia_r.femur_med_r.force.Z	femur_med_tibia_r.femur_med_r.torque.X	femur_med_tibia_r.femur_med_r.torque.Y	femur_med_tibia_r.femur_med_r.torque.Z	femur_lat_tibia_r.tibia_upper_r.force.X	femur_lat_tibia_r.tibia_upper_r.force.Y	femur_lat_tibia_r.tibia_upper_r.force.Z	femur_lat_tibia_r.tibia_upper_r.torque.X	femur_lat_tibia_r.tibia_upper_r.torque.Y	femur_lat_tibia_r.tibia_upper_r.torque.Z	femur_lat_tibia_r.femur_lat_r.force.X	femur_lat_tibia_r.femur_lat_r.force.Y	femur_lat_tibia_r.femur_lat_r.force.Z	femur_lat_tibia_r.femur_lat_r.torque.X	femur_lat_tibia_r.femur_lat_r.torque.Y	femur_lat_tibia_r.femur_lat_r.torque.Z	femur_lat_meniscii_force_r	femur_med_meniscii_force_r	femur_lat_tibia_force_r	femur_med_tibia_force_r
      0.10884186	      0.00887100	      0.00772287	     28.67765611	     17.91382403	    -11.18988830	      0.00000000	      0.00000000	      0.00000000	      0.00000000	    -31.57395520	      0.00000000	      0.00000000	      0.00000000	      0.00000000	      0.00000000	      0.00000001	      0.00000000	      0.03303049	      0.02588261	      0.03053875	      0.02986105	      0.05733893	      0.05965773	      0.05897730	      0.05296127	      0.04996232	      0.04640307	      0.01525851	      0.01651186	      0.06550154	      0.04489616	      0.06531061	      0.03287912	     -0.01789836	     -0.00089517	     -0.04478101	     -0.00227064	      0.00424501	     -0.05387791	     -0.11286282	     -0.11347588	      0.00000079	     -0.32847694	      0.00000060	     -0.00000086	      8.63149892	    172.47407199	     26.85240570	    -15.20571612	      0.25847119	      2.92326238	     -8.63149892	   -172.47407199	    -26.85240570	      5.29614300	     -0.56548796	      2.23407450	    -16.99464807	     28.64121428	      1.77315462	     -0.04862513	      0.40084439	     -6.97752269	     16.99464807	    -28.64121428	     -1.77315462	     -0.56948088	     -0.38420471	      0.78456309	    -60.42517562	   -489.51662496	    121.11189982	    -11.83631868	      1.96223877	      2.02990876	     60.42517562	    489.51662496	   -121.11189982	     59.19484162	     -0.78630839	     26.35115489	    -55.67598595	   -280.74395562	    -69.92307085	      9.50302223	     -2.18921224	      1.22550826	     55.67598595	    280.74395562	     69.92307085	    -35.66118062	      1.31997619	     23.09284627	    174.76515664	     33.35088148	    294.62895286	    507.88366802
      0.10944364	      0.00888999	      0.00780262	     28.94893834	     17.27930946	    -11.63570460	      0.00000000	     65.78612383	      0.00000000	      0.00000000	    -32.33702059	      0.00000000	      0.00000000	      0.00000000	      0.00000000	      0.00000000	      0.00000001	      0.00000000	      0.03300874	      0.02585382	      0.03059555	      0.02990390	      0.05736560	      0.05965939	      0.05895111	      0.05295857	      0.04994203	      0.04636583	      0.01525851	      0.01651186	      0.06550154	      0.04489616	      0.06460913	      0.03173038	     -0.01607159	      0.00053881	     -0.04433670	     -0.00224281	      0.00379904	     -0.05392604	     -0.11322308	     -0.11418736	      0.00000079	     -0.32847694	      0.00000060	     -0.00000086	      9.03521402	    173.10667554	     26.28779475	    -14.98364658	      0.26196198	      3.07327366	     -9.03521402	   -173.10667554	    -26.28779475	      5.28743797	     -0.56540809	      2.25756025	    -16.69776886	     29.25955482	      1.90596739	     -0.08726293	      0.39493549	     -6.85050271	     16.69776886	    -29.25955482	     -1.90596739	     -0.58102466	     -0.38087241	      0.77988928	    -62.84202425	   -490.21807570	    121.28539970	    -11.86604789	      2.01138245	      1.98013183	     62.84202425	    490.21807570	   -121.28539970	     59.28063658	     -0.82859603	     27.36760519	    -57.35310155	   -276.20973697	    -68.42415904	      9.32526677	     -2.21990227	      1.14564965	     57.35310155	    276.20973697	     68.42415904	    -34.92578640	      1.35974675	     23.78490933	    175.32428344	     33.74269914	    290.28100626	    508.89392798
      0.11016952	      0.00891855	      0.00790240	     29.27824212	     17.42069730	    -11.36376361	      0.00000000	     57.61737258	      0.00000000	      0.00000000	    -35.93560307	      0.00000000	      0.00000000	      0.00000000	      0.00000000	      0.00000000	      0.00000001	      0.00000000	      0.03298342	      0.02582002	      0.03065939	      0.02995054	      0.05739519	      0.05965841	      0.05891657	      0.05295217	      0.04991427	      0.04631742	      0.01525851	      0.01651186	      0.06550154	      0.04489616	      0.06379256	      0.03038159	     -0.01401858	      0.00209902	     -0.04384373	     -0.00225921	      0.00321089	     -0.05404034	     -0.11371611	     -0.11511209	      0.00000079	     -0.32847694	      0.00000060	     -0.00000086	     12.91310041	    179.74523857	     24.75334795	    -14.49537989	      0.34712381	      4.66008217	    -12.91310041	   -179.74523857	    -24.75334795	      5.39552355	     -0.64398064	      2.24265926	    -16.19253412	     29.61837857	      1.91083155	     -0.07799129	      0.38237072	     -6.63784871	     16.19253412	    -29.61837857	     -1.91083155	     -0.59214620	     -0.36999192	      0.76717744	    -70.25135161	   -503.96125567	    125.13197180	    -12.23324341	      2.17110687	      1.86424346	     70.25135161	    503.96125567	   -125.13197180	     61.13488288	     -0.94872953	     30.51307007	    -59.52919001	   -275.08604293	    -67.00942105	      9.23005548	     -2.26568029	      1.10123398	     59.52919001	    275.08604293	     67.00942105	    -34.29841016	      1.41160963	     24.67486944	    181.90059699	     33.80972918	    289.32044170	    523.99447515
      0.11164934	      0.00899794	      0.00811100	     29.95698705	     18.88543855	     -9.76765895	      0.00000000	     54.84984899	      0.00000000	      0.00000000	    -34.84505808	      0.00000000	      0.00000000	      0.00000000	      0.00000000	      0.00000000	      0.00000001	      0.00000000	      0.03293925	      0.02575796	      0.03077981	      0.03003454	      0.05745417	      0.05965358	      0.05884354	      0.05293631	      0.04985444	      0.04621496	      0.01525851	      0.01651186	      0.06550154	      0.04489616	      0.06236808	      0.02790499	     -0.01014588	      0.00490975	     -0.04286113	     -0.00234008	      0.00196735	     -0.05432380	     -0.11477840	     -0.11706962	      0.00000079	     -0.32847694	      0.00000060	     -0.00000086	     16.22573347	    175.37868942	     24.82256103	    -14.42572528	      0.41999789	      6.04133791	    -16.22573347	   -175.37868942	    -24.82256103	      5.28235358	     -0.72889604	      2.11785499	    -14.93402544	     27.65075156	      2.40233511	     -0.33178269	      0.34431716	     -6.13010109	     14.93402544	    -27.65075156	     -2.40233511	     -0.53167647	     -0.34107375	      0.72510837	    -85.45734024	   -524.09559755	    130.31250494	    -12.75190696	      2.48100719	      1.59761387	     85.45734024	    524.09559755	   -130.31250494	     63.65337970	     -1.20198654	     36.92695876	    -62.28016466	   -269.97149863	    -66.48696233	      9.06646233	     -2.35015744	      1.05244879	     62.28016466	    269.97149863	     66.48696233	    -33.95801481	      1.48498948	     25.77718238	    177.86826211	     31.51762034	    284.92796483	    546.77280594
